<?xml version="1.0" ?><svg id="Layer_1" style="enable-background:new 0 0 120 120;" version="1.1" viewBox="0 0 120 120" xml:space="preserve" xmlns="http://www.w3.org/2000/svg" xmlns:xlink="http://www.w3.org/1999/xlink"><style type="text/css">
	.st0{fill:#389DFF;}
	.st1{fill:#F7F7F7;}
	.st2{fill:#FF697E;}
	.st3{fill:#FFD461;}
	.st4{fill:#294151;}
</style><g><circle class="st0" cx="53.7" cy="63.4" r="37.9"/><circle class="st1" cx="53.7" cy="63.4" r="27"/><circle class="st2" cx="53.7" cy="63.4" r="16.1"/><circle class="st3" cx="53.7" cy="63.4" r="7.2"/><path class="st4" d="M94.7,31.2L54.3,65.1c-0.8,0.7-2.1,0.6-2.8-0.2l-0.1-0.1c-0.7-0.8-0.6-2.1,0.2-2.8L92,28   c0.8-0.7,2.1-0.6,2.8,0.2l0.1,0.1C95.7,29.2,95.6,30.5,94.7,31.2z"/><path class="st2" d="M104,31.4l-13.1,11c-0.2,0.2-0.5,0.2-0.8,0.2l-9.2-1.8c-0.4-0.1-0.7-0.4-0.7-0.9L80,30.5   c0-0.3,0.1-0.5,0.3-0.7l13.1-11c0.6-0.5,1.5-0.1,1.5,0.7l0.1,7.9c0,0.4,0.3,0.8,0.7,0.9l7.8,1.5C104.3,29.9,104.6,30.9,104,31.4z"/></g></svg>